<svg xmlns="http://www.w3.org/2000/svg" width="128" height="128" viewBox="0 0 128 128">
  <rect width="128" height="128" rx="24" fill="#ffffff"/>
  <g transform="translate(16,44) scale(0.16)">
    <path fill="#2006f7" d="M4.48,4.35v28.3c0,4.8,2.6,9.21,6.79,11.54l29.46,16.35.19.11,29.6-16.45c4.19-2.33,6.79-6.74,6.79-11.53V4.35H4.48ZM51.89,37.88c-2.2,1.22-4.67,1.86-7.18,1.86l-27.32-.08,15.32-8.54c1.48-.83,3.14-1.26,4.84-1.27l28.92-.09-14.57,8.13ZM51.47,23.9c-1.48.83-3.14,1.26-4.84,1.27l-28.92.09,14.57-8.13c2.2-1.22,4.67-1.86,7.18-1.86l27.32.08-15.32,8.54Z"/>
  </g>
  <rect x="12" y="12" width="104" height="104" rx="20" fill="none" stroke="#001a47" stroke-width="4" opacity="0.08"/>
</svg>
