<svg xmlns="http://www.w3.org/2000/svg" viewBox="0 0 128 128" width="128" height="128" role="img" aria-label="Watchman icon">
  <defs>
    <linearGradient id="bg" x1="0" y1="0" x2="1" y2="1">
      <stop offset="0%" stop-color="#07111d"/>
      <stop offset="100%" stop-color="#12263a"/>
    </linearGradient>
    <linearGradient id="beam" x1="0" y1="1" x2="1" y2="0">
      <stop offset="0%" stop-color="#8ce9ff" stop-opacity="0.06"/>
      <stop offset="100%" stop-color="#ffffff" stop-opacity="0.85"/>
    </linearGradient>
    <radialGradient id="signalGlow" cx="70%" cy="28%" r="42%">
      <stop offset="0%" stop-color="#ffffff" stop-opacity="0.94"/>
      <stop offset="45%" stop-color="#d2f9ff" stop-opacity="0.62"/>
      <stop offset="100%" stop-color="#7de6ff" stop-opacity="0.06"/>
    </radialGradient>
    <linearGradient id="lightBase" x1="0" y1="0" x2="1" y2="1">
      <stop offset="0%" stop-color="#e4edf6"/>
      <stop offset="100%" stop-color="#8ea7c2"/>
    </linearGradient>
  </defs>

  <rect width="128" height="128" rx="28" fill="url(#bg)"/>

  <path d="M28 96 L82 26 L110 44 L44 108 Z" fill="url(#beam)"/>
  <ellipse cx="91" cy="37" rx="27" ry="20" fill="url(#signalGlow)"/>
  <ellipse cx="91" cy="37" rx="22" ry="16" fill="#ffffff" opacity="0.08"/>

  <g transform="translate(71 16) scale(0.68)">
    <path fill="#2006f7" d="M.24,10.78v25.07c0,4.25,2.3,8.16,6.02,10.22l26.1,14.48.17.09,26.22-14.57c3.71-2.06,6.01-5.97,6.01-10.22V10.78H.24Z"/>
    <path fill="#fff" d="M55.43,20.52l-13.57,7.57c-1.31.73-2.79,1.12-4.29,1.12l-25.62.08,12.91-7.2c1.94-1.08,4.14-1.65,6.36-1.64l24.2.07ZM11.67,42.05l13.57-7.57c1.31-.73,2.79-1.12,4.29-1.12l25.62-.08-12.91,7.2c-1.94,1.08-4.14,1.65-6.36,1.64l-24.2-.07Z"/>
  </g>

  <g transform="translate(16 88)">
    <ellipse cx="18" cy="14" rx="16" ry="7" fill="#08121d" opacity="0.5"/>
    <rect x="4" y="7" width="30" height="14" rx="7" fill="url(#lightBase)" transform="rotate(-18 19 14)"/>
    <circle cx="28" cy="7" r="8.5" fill="url(#lightBase)"/>
    <circle cx="28" cy="7" r="4.5" fill="#00A8E0"/>
  </g>
</svg>
